G04 #@! TF.FileFunction,Copper,L2,Bot,Signal*
%FSLAX46Y46*%
G04 Gerber Fmt 4.6, Leading zero omitted, Abs format (unit mm)*
G04 Created by KiCad (PCBNEW 4.0.0-rc1-stable) date 11/7/2015 3:14:44 PM*
%MOMM*%
G01*
G04 APERTURE LIST*
%ADD10C,0.020000*%
%ADD11C,1.900000*%
%ADD12C,1.752600*%
%ADD13C,1.998980*%
%ADD14C,0.600000*%
%ADD15C,0.250000*%
G04 APERTURE END LIST*
D10*
D11*
X109220000Y-68580000D03*
X111760000Y-68580000D03*
X114300000Y-68580000D03*
X116840000Y-68580000D03*
X119380000Y-68580000D03*
X121920000Y-68580000D03*
X124460000Y-68580000D03*
X127000000Y-68580000D03*
X129540000Y-68580000D03*
X132080000Y-68580000D03*
X134620000Y-68580000D03*
X137160000Y-68580000D03*
X139700000Y-68580000D03*
X139700000Y-83820000D03*
X137160000Y-83820000D03*
X134620000Y-83820000D03*
X132080000Y-83820000D03*
X129540000Y-83820000D03*
X127000000Y-83820000D03*
X124460000Y-83820000D03*
X121920000Y-83820000D03*
X119380000Y-83820000D03*
X116840000Y-83820000D03*
X114300000Y-83820000D03*
X111760000Y-83820000D03*
X109220000Y-83820000D03*
X106680000Y-83820000D03*
X106680000Y-68580000D03*
D12*
X124460000Y-78740000D03*
X124460000Y-73660000D03*
X111760000Y-73660000D03*
X111760000Y-78740000D03*
X142875000Y-82550000D03*
X142875000Y-80010000D03*
X142875000Y-77470000D03*
X142875000Y-74930000D03*
X142875000Y-72390000D03*
X142875000Y-69850000D03*
X146685000Y-82550000D03*
X146685000Y-80010000D03*
X146685000Y-77470000D03*
X146685000Y-74930000D03*
X146685000Y-72390000D03*
X146685000Y-69850000D03*
X130810000Y-80010000D03*
X133350000Y-80010000D03*
X135890000Y-80010000D03*
D13*
X124460000Y-86995000D03*
X134620000Y-86995000D03*
X124460000Y-90170000D03*
X134620000Y-90170000D03*
D14*
X144780000Y-79375000D03*
X138430000Y-79375000D03*
X111760000Y-73660000D03*
D15*
X140335000Y-77470000D02*
X142875000Y-80010000D01*
X133350000Y-77470000D02*
X140335000Y-77470000D01*
X130810000Y-80010000D02*
X133350000Y-77470000D01*
X142875000Y-80010000D02*
X146685000Y-80010000D01*
X128905000Y-81915000D02*
X130810000Y-80010000D01*
X108585000Y-81915000D02*
X128905000Y-81915000D01*
X106680000Y-83820000D02*
X108585000Y-81915000D01*
X128270000Y-72390000D02*
X142875000Y-72390000D01*
X125730000Y-74930000D02*
X128270000Y-72390000D01*
X111125000Y-74930000D02*
X125730000Y-74930000D01*
X110490000Y-74295000D02*
X111125000Y-74930000D01*
X110490000Y-70908333D02*
X110490000Y-74295000D01*
X111760000Y-70485000D02*
X110490000Y-70908333D01*
X111760000Y-68580000D02*
X111760000Y-70485000D01*
X144780000Y-79375000D02*
X146685000Y-77470000D01*
X134620000Y-86995000D02*
X135890000Y-85725000D01*
X141605000Y-82550000D02*
X138430000Y-79375000D01*
X141605000Y-84455000D02*
X141605000Y-82550000D01*
X140335000Y-85725000D02*
X141605000Y-84455000D01*
X135890000Y-85725000D02*
X140335000Y-85725000D01*
X124460000Y-71120000D02*
X124460000Y-73660000D01*
X124460000Y-71120000D02*
X127000000Y-68580000D01*
X124460000Y-90170000D02*
X127000000Y-87630000D01*
X127000000Y-87630000D02*
X127000000Y-83820000D01*
X124460000Y-83820000D02*
X124460000Y-86995000D01*
X141605000Y-76200000D02*
X142875000Y-74930000D01*
X109220000Y-68580000D02*
X109220000Y-74930000D01*
X109220000Y-74930000D02*
X110490000Y-76200000D01*
X110490000Y-76200000D02*
X141605000Y-76200000D01*
M02*
