G04 #@! TF.FileFunction,Legend,Bot*
%FSLAX46Y46*%
G04 Gerber Fmt 4.6, Leading zero omitted, Abs format (unit mm)*
G04 Created by KiCad (PCBNEW 4.0.0-rc1-stable) date 11/7/2015 3:14:44 PM*
%MOMM*%
G01*
G04 APERTURE LIST*
%ADD10C,0.020000*%
%ADD11C,0.300000*%
%ADD12C,0.150000*%
G04 APERTURE END LIST*
D10*
D11*
X134789286Y-76735714D02*
X134860715Y-76807143D01*
X135075001Y-76878571D01*
X135217858Y-76878571D01*
X135432143Y-76807143D01*
X135575001Y-76664286D01*
X135646429Y-76521429D01*
X135717858Y-76235714D01*
X135717858Y-76021429D01*
X135646429Y-75735714D01*
X135575001Y-75592857D01*
X135432143Y-75450000D01*
X135217858Y-75378571D01*
X135075001Y-75378571D01*
X134860715Y-75450000D01*
X134789286Y-75521429D01*
X134146429Y-76878571D02*
X134146429Y-75378571D01*
X133503572Y-76878571D02*
X133503572Y-76092857D01*
X133575001Y-75950000D01*
X133717858Y-75878571D01*
X133932143Y-75878571D01*
X134075001Y-75950000D01*
X134146429Y-76021429D01*
X132146429Y-76878571D02*
X132146429Y-76092857D01*
X132217858Y-75950000D01*
X132360715Y-75878571D01*
X132646429Y-75878571D01*
X132789286Y-75950000D01*
X132146429Y-76807143D02*
X132289286Y-76878571D01*
X132646429Y-76878571D01*
X132789286Y-76807143D01*
X132860715Y-76664286D01*
X132860715Y-76521429D01*
X132789286Y-76378571D01*
X132646429Y-76307143D01*
X132289286Y-76307143D01*
X132146429Y-76235714D01*
X131432143Y-75878571D02*
X131432143Y-76878571D01*
X131432143Y-76021429D02*
X131360715Y-75950000D01*
X131217857Y-75878571D01*
X131003572Y-75878571D01*
X130860715Y-75950000D01*
X130789286Y-76092857D01*
X130789286Y-76878571D01*
X129432143Y-76878571D02*
X129432143Y-75378571D01*
X129432143Y-76807143D02*
X129575000Y-76878571D01*
X129860714Y-76878571D01*
X130003572Y-76807143D01*
X130075000Y-76735714D01*
X130146429Y-76592857D01*
X130146429Y-76164286D01*
X130075000Y-76021429D01*
X130003572Y-75950000D01*
X129860714Y-75878571D01*
X129575000Y-75878571D01*
X129432143Y-75950000D01*
X128075000Y-76878571D02*
X128075000Y-76092857D01*
X128146429Y-75950000D01*
X128289286Y-75878571D01*
X128575000Y-75878571D01*
X128717857Y-75950000D01*
X128075000Y-76807143D02*
X128217857Y-76878571D01*
X128575000Y-76878571D01*
X128717857Y-76807143D01*
X128789286Y-76664286D01*
X128789286Y-76521429D01*
X128717857Y-76378571D01*
X128575000Y-76307143D01*
X128217857Y-76307143D01*
X128075000Y-76235714D01*
X127360714Y-75878571D02*
X127360714Y-76878571D01*
X127360714Y-76021429D02*
X127289286Y-75950000D01*
X127146428Y-75878571D01*
X126932143Y-75878571D01*
X126789286Y-75950000D01*
X126717857Y-76092857D01*
X126717857Y-76878571D01*
X124860714Y-76878571D02*
X124860714Y-75378571D01*
X124289286Y-75378571D01*
X124146428Y-75450000D01*
X124075000Y-75521429D01*
X124003571Y-75664286D01*
X124003571Y-75878571D01*
X124075000Y-76021429D01*
X124146428Y-76092857D01*
X124289286Y-76164286D01*
X124860714Y-76164286D01*
X122717857Y-75878571D02*
X122717857Y-76878571D01*
X123360714Y-75878571D02*
X123360714Y-76664286D01*
X123289286Y-76807143D01*
X123146428Y-76878571D01*
X122932143Y-76878571D01*
X122789286Y-76807143D01*
X122717857Y-76735714D01*
X122003571Y-75878571D02*
X122003571Y-76878571D01*
X122003571Y-76021429D02*
X121932143Y-75950000D01*
X121789285Y-75878571D01*
X121575000Y-75878571D01*
X121432143Y-75950000D01*
X121360714Y-76092857D01*
X121360714Y-76878571D01*
X120789285Y-75878571D02*
X120432142Y-76878571D01*
X120075000Y-75878571D02*
X120432142Y-76878571D01*
X120575000Y-77235714D01*
X120646428Y-77307143D01*
X120789285Y-77378571D01*
X118860714Y-76878571D02*
X118860714Y-76092857D01*
X118932143Y-75950000D01*
X119075000Y-75878571D01*
X119360714Y-75878571D01*
X119503571Y-75950000D01*
X118860714Y-76807143D02*
X119003571Y-76878571D01*
X119360714Y-76878571D01*
X119503571Y-76807143D01*
X119575000Y-76664286D01*
X119575000Y-76521429D01*
X119503571Y-76378571D01*
X119360714Y-76307143D01*
X119003571Y-76307143D01*
X118860714Y-76235714D01*
X118146428Y-76878571D02*
X118146428Y-75378571D01*
X118003571Y-76307143D02*
X117575000Y-76878571D01*
X117575000Y-75878571D02*
X118146428Y-76450000D01*
X116289285Y-75878571D02*
X116289285Y-76878571D01*
X116932142Y-75878571D02*
X116932142Y-76664286D01*
X116860714Y-76807143D01*
X116717856Y-76878571D01*
X116503571Y-76878571D01*
X116360714Y-76807143D01*
X116289285Y-76735714D01*
X115574999Y-76878571D02*
X115574999Y-75878571D01*
X115574999Y-76021429D02*
X115503571Y-75950000D01*
X115360713Y-75878571D01*
X115146428Y-75878571D01*
X115003571Y-75950000D01*
X114932142Y-76092857D01*
X114932142Y-76878571D01*
X114932142Y-76092857D02*
X114860713Y-75950000D01*
X114717856Y-75878571D01*
X114503571Y-75878571D01*
X114360713Y-75950000D01*
X114289285Y-76092857D01*
X114289285Y-76878571D01*
X112932142Y-76878571D02*
X112932142Y-76092857D01*
X113003571Y-75950000D01*
X113146428Y-75878571D01*
X113432142Y-75878571D01*
X113574999Y-75950000D01*
X112932142Y-76807143D02*
X113074999Y-76878571D01*
X113432142Y-76878571D01*
X113574999Y-76807143D01*
X113646428Y-76664286D01*
X113646428Y-76521429D01*
X113574999Y-76378571D01*
X113432142Y-76307143D01*
X113074999Y-76307143D01*
X112932142Y-76235714D01*
X112217856Y-76878571D02*
X112217856Y-75878571D01*
X112217856Y-76164286D02*
X112146428Y-76021429D01*
X112074999Y-75950000D01*
X111932142Y-75878571D01*
X111789285Y-75878571D01*
X132745714Y-62043571D02*
X132745714Y-63115000D01*
X132817142Y-63329286D01*
X132959999Y-63472143D01*
X133174285Y-63543571D01*
X133317142Y-63543571D01*
X131460000Y-63472143D02*
X131602857Y-63543571D01*
X131888571Y-63543571D01*
X132031428Y-63472143D01*
X132102857Y-63329286D01*
X132102857Y-62757857D01*
X132031428Y-62615000D01*
X131888571Y-62543571D01*
X131602857Y-62543571D01*
X131460000Y-62615000D01*
X131388571Y-62757857D01*
X131388571Y-62900714D01*
X132102857Y-63043571D01*
X130960000Y-62543571D02*
X130388571Y-62543571D01*
X130745714Y-63543571D02*
X130745714Y-62257857D01*
X130674286Y-62115000D01*
X130531428Y-62043571D01*
X130388571Y-62043571D01*
X130102857Y-62543571D02*
X129531428Y-62543571D01*
X129888571Y-63543571D02*
X129888571Y-62257857D01*
X129817143Y-62115000D01*
X129674285Y-62043571D01*
X129531428Y-62043571D01*
X129031428Y-63543571D02*
X129031428Y-62543571D01*
X129031428Y-62829286D02*
X128960000Y-62686429D01*
X128888571Y-62615000D01*
X128745714Y-62543571D01*
X128602857Y-62543571D01*
X127531429Y-63472143D02*
X127674286Y-63543571D01*
X127960000Y-63543571D01*
X128102857Y-63472143D01*
X128174286Y-63329286D01*
X128174286Y-62757857D01*
X128102857Y-62615000D01*
X127960000Y-62543571D01*
X127674286Y-62543571D01*
X127531429Y-62615000D01*
X127460000Y-62757857D01*
X127460000Y-62900714D01*
X128174286Y-63043571D01*
X126960000Y-62543571D02*
X126602857Y-63543571D01*
X126245715Y-62543571D02*
X126602857Y-63543571D01*
X126745715Y-63900714D01*
X126817143Y-63972143D01*
X126960000Y-64043571D01*
X124531429Y-63543571D02*
X124531429Y-62043571D01*
X124174286Y-62043571D01*
X123960001Y-62115000D01*
X123817143Y-62257857D01*
X123745715Y-62400714D01*
X123674286Y-62686429D01*
X123674286Y-62900714D01*
X123745715Y-63186429D01*
X123817143Y-63329286D01*
X123960001Y-63472143D01*
X124174286Y-63543571D01*
X124531429Y-63543571D01*
X122460001Y-63472143D02*
X122602858Y-63543571D01*
X122888572Y-63543571D01*
X123031429Y-63472143D01*
X123102858Y-63329286D01*
X123102858Y-62757857D01*
X123031429Y-62615000D01*
X122888572Y-62543571D01*
X122602858Y-62543571D01*
X122460001Y-62615000D01*
X122388572Y-62757857D01*
X122388572Y-62900714D01*
X123102858Y-63043571D01*
X121460001Y-62829286D02*
X121460001Y-63543571D01*
X121960001Y-62043571D02*
X121460001Y-62829286D01*
X120960001Y-62043571D01*
X120245715Y-63543571D02*
X120388573Y-63472143D01*
X120460001Y-63400714D01*
X120531430Y-63257857D01*
X120531430Y-62829286D01*
X120460001Y-62686429D01*
X120388573Y-62615000D01*
X120245715Y-62543571D01*
X120031430Y-62543571D01*
X119888573Y-62615000D01*
X119817144Y-62686429D01*
X119745715Y-62829286D01*
X119745715Y-63257857D01*
X119817144Y-63400714D01*
X119888573Y-63472143D01*
X120031430Y-63543571D01*
X120245715Y-63543571D01*
X118460001Y-62543571D02*
X118460001Y-63543571D01*
X119102858Y-62543571D02*
X119102858Y-63329286D01*
X119031430Y-63472143D01*
X118888572Y-63543571D01*
X118674287Y-63543571D01*
X118531430Y-63472143D01*
X118460001Y-63400714D01*
X117745715Y-62543571D02*
X117745715Y-63543571D01*
X117745715Y-62686429D02*
X117674287Y-62615000D01*
X117531429Y-62543571D01*
X117317144Y-62543571D01*
X117174287Y-62615000D01*
X117102858Y-62757857D01*
X117102858Y-63543571D01*
X115745715Y-62543571D02*
X115745715Y-63757857D01*
X115817144Y-63900714D01*
X115888572Y-63972143D01*
X116031429Y-64043571D01*
X116245715Y-64043571D01*
X116388572Y-63972143D01*
X115745715Y-63472143D02*
X115888572Y-63543571D01*
X116174286Y-63543571D01*
X116317144Y-63472143D01*
X116388572Y-63400714D01*
X116460001Y-63257857D01*
X116460001Y-62829286D01*
X116388572Y-62686429D01*
X116317144Y-62615000D01*
X116174286Y-62543571D01*
X115888572Y-62543571D01*
X115745715Y-62615000D01*
X129503572Y-70298571D02*
X129503572Y-71370000D01*
X129575000Y-71584286D01*
X129717857Y-71727143D01*
X129932143Y-71798571D01*
X130075000Y-71798571D01*
X128575000Y-71798571D02*
X128717858Y-71727143D01*
X128789286Y-71655714D01*
X128860715Y-71512857D01*
X128860715Y-71084286D01*
X128789286Y-70941429D01*
X128717858Y-70870000D01*
X128575000Y-70798571D01*
X128360715Y-70798571D01*
X128217858Y-70870000D01*
X128146429Y-70941429D01*
X128075000Y-71084286D01*
X128075000Y-71512857D01*
X128146429Y-71655714D01*
X128217858Y-71727143D01*
X128360715Y-71798571D01*
X128575000Y-71798571D01*
X127503572Y-71727143D02*
X127360715Y-71798571D01*
X127075000Y-71798571D01*
X126932143Y-71727143D01*
X126860715Y-71584286D01*
X126860715Y-71512857D01*
X126932143Y-71370000D01*
X127075000Y-71298571D01*
X127289286Y-71298571D01*
X127432143Y-71227143D01*
X127503572Y-71084286D01*
X127503572Y-71012857D01*
X127432143Y-70870000D01*
X127289286Y-70798571D01*
X127075000Y-70798571D01*
X126932143Y-70870000D01*
X126217857Y-71798571D02*
X126217857Y-70298571D01*
X125575000Y-71798571D02*
X125575000Y-71012857D01*
X125646429Y-70870000D01*
X125789286Y-70798571D01*
X126003571Y-70798571D01*
X126146429Y-70870000D01*
X126217857Y-70941429D01*
X123789286Y-71727143D02*
X123575000Y-71798571D01*
X123217857Y-71798571D01*
X123075000Y-71727143D01*
X123003571Y-71655714D01*
X122932143Y-71512857D01*
X122932143Y-71370000D01*
X123003571Y-71227143D01*
X123075000Y-71155714D01*
X123217857Y-71084286D01*
X123503571Y-71012857D01*
X123646429Y-70941429D01*
X123717857Y-70870000D01*
X123789286Y-70727143D01*
X123789286Y-70584286D01*
X123717857Y-70441429D01*
X123646429Y-70370000D01*
X123503571Y-70298571D01*
X123146429Y-70298571D01*
X122932143Y-70370000D01*
X122075000Y-71798571D02*
X122217858Y-71727143D01*
X122289286Y-71655714D01*
X122360715Y-71512857D01*
X122360715Y-71084286D01*
X122289286Y-70941429D01*
X122217858Y-70870000D01*
X122075000Y-70798571D01*
X121860715Y-70798571D01*
X121717858Y-70870000D01*
X121646429Y-70941429D01*
X121575000Y-71084286D01*
X121575000Y-71512857D01*
X121646429Y-71655714D01*
X121717858Y-71727143D01*
X121860715Y-71798571D01*
X122075000Y-71798571D01*
X120289286Y-70798571D02*
X120289286Y-71798571D01*
X120932143Y-70798571D02*
X120932143Y-71584286D01*
X120860715Y-71727143D01*
X120717857Y-71798571D01*
X120503572Y-71798571D01*
X120360715Y-71727143D01*
X120289286Y-71655714D01*
X119717857Y-70798571D02*
X118932143Y-70798571D01*
X119717857Y-71798571D01*
X118932143Y-71798571D01*
X117717857Y-71798571D02*
X117717857Y-71012857D01*
X117789286Y-70870000D01*
X117932143Y-70798571D01*
X118217857Y-70798571D01*
X118360714Y-70870000D01*
X117717857Y-71727143D02*
X117860714Y-71798571D01*
X118217857Y-71798571D01*
X118360714Y-71727143D01*
X118432143Y-71584286D01*
X118432143Y-71441429D01*
X118360714Y-71298571D01*
X118217857Y-71227143D01*
X117860714Y-71227143D01*
X117717857Y-71155714D01*
D12*
X175895000Y-67310000D02*
X170815000Y-67310000D01*
X175895000Y-67310000D02*
X175895000Y-85090000D01*
X175895000Y-85090000D02*
X170815000Y-85090000D01*
X158115000Y-85090000D02*
X153035000Y-85090000D01*
X153035000Y-85090000D02*
X153035000Y-67310000D01*
X153035000Y-67310000D02*
X158115000Y-67310000D01*
X173445256Y-76200000D02*
G75*
G03X173445256Y-76200000I-8980256J0D01*
G01*
X175315885Y-76200000D02*
G75*
G03X175315885Y-76200000I-10850885J0D01*
G01*
X146685000Y-64770000D02*
X182245000Y-64770000D01*
X146685000Y-87630000D02*
X182245000Y-87630000D01*
X144145000Y-85090000D02*
X144145000Y-67310000D01*
X144145000Y-67310000D02*
G75*
G02X146685000Y-64770000I2540000J0D01*
G01*
X146685000Y-87630000D02*
G75*
G02X144145000Y-85090000I0J2540000D01*
G01*
X182245000Y-64770000D02*
X182245000Y-87630000D01*
X127000000Y-88265000D02*
X132080000Y-88265000D01*
X132080000Y-88265000D02*
X132080000Y-85725000D01*
X132080000Y-85725000D02*
X127000000Y-85725000D01*
X127000000Y-85725000D02*
X127000000Y-88265000D01*
X127000000Y-86995000D02*
X125730000Y-86995000D01*
X132080000Y-86995000D02*
X133350000Y-86995000D01*
X127000000Y-91440000D02*
X132080000Y-91440000D01*
X132080000Y-91440000D02*
X132080000Y-88900000D01*
X132080000Y-88900000D02*
X127000000Y-88900000D01*
X127000000Y-88900000D02*
X127000000Y-91440000D01*
X127000000Y-90170000D02*
X125730000Y-90170000D01*
X132080000Y-90170000D02*
X133350000Y-90170000D01*
X107128571Y-71993572D02*
X107128571Y-72850715D01*
X108628571Y-72422144D02*
X107128571Y-72422144D01*
X108557143Y-73922143D02*
X108628571Y-73779286D01*
X108628571Y-73493572D01*
X108557143Y-73350715D01*
X108414286Y-73279286D01*
X107842857Y-73279286D01*
X107700000Y-73350715D01*
X107628571Y-73493572D01*
X107628571Y-73779286D01*
X107700000Y-73922143D01*
X107842857Y-73993572D01*
X107985714Y-73993572D01*
X108128571Y-73279286D01*
X108557143Y-75207857D02*
X108628571Y-75065000D01*
X108628571Y-74779286D01*
X108557143Y-74636429D01*
X108414286Y-74565000D01*
X107842857Y-74565000D01*
X107700000Y-74636429D01*
X107628571Y-74779286D01*
X107628571Y-75065000D01*
X107700000Y-75207857D01*
X107842857Y-75279286D01*
X107985714Y-75279286D01*
X108128571Y-74565000D01*
X107628571Y-75922143D02*
X108628571Y-75922143D01*
X107771429Y-75922143D02*
X107700000Y-75993571D01*
X107628571Y-76136429D01*
X107628571Y-76350714D01*
X107700000Y-76493571D01*
X107842857Y-76565000D01*
X108628571Y-76565000D01*
X108557143Y-77207857D02*
X108628571Y-77350714D01*
X108628571Y-77636429D01*
X108557143Y-77779286D01*
X108414286Y-77850714D01*
X108342857Y-77850714D01*
X108200000Y-77779286D01*
X108128571Y-77636429D01*
X108128571Y-77422143D01*
X108057143Y-77279286D01*
X107914286Y-77207857D01*
X107842857Y-77207857D01*
X107700000Y-77279286D01*
X107628571Y-77422143D01*
X107628571Y-77636429D01*
X107700000Y-77779286D01*
X107628571Y-78350715D02*
X108628571Y-78707858D01*
X107628571Y-79065000D02*
X108628571Y-78707858D01*
X108985714Y-78565000D01*
X109057143Y-78493572D01*
X109128571Y-78350715D01*
X145232381Y-75152381D02*
X144756190Y-74819047D01*
X145232381Y-74580952D02*
X144232381Y-74580952D01*
X144232381Y-74961905D01*
X144280000Y-75057143D01*
X144327619Y-75104762D01*
X144422857Y-75152381D01*
X144565714Y-75152381D01*
X144660952Y-75104762D01*
X144708571Y-75057143D01*
X144756190Y-74961905D01*
X144756190Y-74580952D01*
X144232381Y-75438095D02*
X144232381Y-76009524D01*
X145232381Y-75723809D02*
X144232381Y-75723809D01*
X145137143Y-76914286D02*
X145184762Y-76866667D01*
X145232381Y-76723810D01*
X145232381Y-76628572D01*
X145184762Y-76485714D01*
X145089524Y-76390476D01*
X144994286Y-76342857D01*
X144803810Y-76295238D01*
X144660952Y-76295238D01*
X144470476Y-76342857D01*
X144375238Y-76390476D01*
X144280000Y-76485714D01*
X144232381Y-76628572D01*
X144232381Y-76723810D01*
X144280000Y-76866667D01*
X144327619Y-76914286D01*
X145232381Y-77866667D02*
X145232381Y-77295238D01*
X145232381Y-77580952D02*
X144232381Y-77580952D01*
X144375238Y-77485714D01*
X144470476Y-77390476D01*
X144518095Y-77295238D01*
X130754286Y-86447381D02*
X130087619Y-86447381D01*
X130516191Y-87447381D01*
X129516191Y-86447381D02*
X129420952Y-86447381D01*
X129325714Y-86495000D01*
X129278095Y-86542619D01*
X129230476Y-86637857D01*
X129182857Y-86828333D01*
X129182857Y-87066429D01*
X129230476Y-87256905D01*
X129278095Y-87352143D01*
X129325714Y-87399762D01*
X129420952Y-87447381D01*
X129516191Y-87447381D01*
X129611429Y-87399762D01*
X129659048Y-87352143D01*
X129706667Y-87256905D01*
X129754286Y-87066429D01*
X129754286Y-86828333D01*
X129706667Y-86637857D01*
X129659048Y-86542619D01*
X129611429Y-86495000D01*
X129516191Y-86447381D01*
X128754286Y-87447381D02*
X128754286Y-86447381D01*
X128659048Y-87066429D02*
X128373333Y-87447381D01*
X128373333Y-86780714D02*
X128754286Y-87161667D01*
X130754286Y-89622381D02*
X130087619Y-89622381D01*
X130516191Y-90622381D01*
X129516191Y-89622381D02*
X129420952Y-89622381D01*
X129325714Y-89670000D01*
X129278095Y-89717619D01*
X129230476Y-89812857D01*
X129182857Y-90003333D01*
X129182857Y-90241429D01*
X129230476Y-90431905D01*
X129278095Y-90527143D01*
X129325714Y-90574762D01*
X129420952Y-90622381D01*
X129516191Y-90622381D01*
X129611429Y-90574762D01*
X129659048Y-90527143D01*
X129706667Y-90431905D01*
X129754286Y-90241429D01*
X129754286Y-90003333D01*
X129706667Y-89812857D01*
X129659048Y-89717619D01*
X129611429Y-89670000D01*
X129516191Y-89622381D01*
X128754286Y-90622381D02*
X128754286Y-89622381D01*
X128659048Y-90241429D02*
X128373333Y-90622381D01*
X128373333Y-89955714D02*
X128754286Y-90336667D01*
M02*
