M48
INCH,TZ
T1C0.016
T2C0.039
T3C0.043
T4C0.098
%
G90
G05
T1
X44000Y-29000
X54500Y-31250
X57000Y-31250
T2
X49000Y-34250
X49000Y-35500
X53000Y-34250
X53000Y-35500
T3
X42000Y-27000
X42000Y-33000
X43000Y-27000
X43000Y-33000
X44000Y-27000
X44000Y-29000
X44000Y-31000
X44000Y-33000
X45000Y-27000
X45000Y-33000
X46000Y-27000
X46000Y-33000
X47000Y-27000
X47000Y-33000
X48000Y-27000
X48000Y-33000
X49000Y-27000
X49000Y-29000
X49000Y-31000
X49000Y-33000
X50000Y-27000
X50000Y-33000
X51000Y-27000
X51000Y-33000
X51500Y-31500
X52000Y-27000
X52000Y-33000
X52500Y-31500
X53000Y-27000
X53000Y-33000
X53500Y-31500
X54000Y-27000
X54000Y-33000
X55000Y-27000
X55000Y-33000
X56250Y-27500
X56250Y-28500
X56250Y-29500
X56250Y-30500
X56250Y-31500
X56250Y-32500
X57750Y-27500
X57750Y-28500
X57750Y-29500
X57750Y-30500
X57750Y-31500
X57750Y-32500
T4
X43000Y-25000
X43000Y-35000
X55500Y-25000
X55500Y-35000
T0
M30
