G04 #@! TF.FileFunction,Soldermask,Bot*
%FSLAX46Y46*%
G04 Gerber Fmt 4.6, Leading zero omitted, Abs format (unit mm)*
G04 Created by KiCad (PCBNEW 4.0.0-rc1-stable) date 11/7/2015 3:14:44 PM*
%MOMM*%
G01*
G04 APERTURE LIST*
%ADD10C,0.020000*%
%ADD11C,2.300000*%
%ADD12C,2.152600*%
%ADD13C,2.398980*%
G04 APERTURE END LIST*
D10*
D11*
X109220000Y-68580000D03*
X111760000Y-68580000D03*
X114300000Y-68580000D03*
X116840000Y-68580000D03*
X119380000Y-68580000D03*
X121920000Y-68580000D03*
X124460000Y-68580000D03*
X127000000Y-68580000D03*
X129540000Y-68580000D03*
X132080000Y-68580000D03*
X134620000Y-68580000D03*
X137160000Y-68580000D03*
X139700000Y-68580000D03*
X139700000Y-83820000D03*
X137160000Y-83820000D03*
X134620000Y-83820000D03*
X132080000Y-83820000D03*
X129540000Y-83820000D03*
X127000000Y-83820000D03*
X124460000Y-83820000D03*
X121920000Y-83820000D03*
X119380000Y-83820000D03*
X116840000Y-83820000D03*
X114300000Y-83820000D03*
X111760000Y-83820000D03*
X109220000Y-83820000D03*
X106680000Y-83820000D03*
X106680000Y-68580000D03*
D12*
X124460000Y-78740000D03*
X124460000Y-73660000D03*
X111760000Y-73660000D03*
X111760000Y-78740000D03*
X142875000Y-82550000D03*
X142875000Y-80010000D03*
X142875000Y-77470000D03*
X142875000Y-74930000D03*
X142875000Y-72390000D03*
X142875000Y-69850000D03*
X146685000Y-82550000D03*
X146685000Y-80010000D03*
X146685000Y-77470000D03*
X146685000Y-74930000D03*
X146685000Y-72390000D03*
X146685000Y-69850000D03*
X130810000Y-80010000D03*
X133350000Y-80010000D03*
X135890000Y-80010000D03*
D13*
X124460000Y-86995000D03*
X134620000Y-86995000D03*
X124460000Y-90170000D03*
X134620000Y-90170000D03*
M02*
